<svg xmlns="http://www.w3.org/2000/svg" width="337" height="227" viewBox="0 0 337 227" fill="none">
<path d="M68.4028 212.392C65.8908 220.891 58.0854 226.723 49.2231 226.723H10.0064C3.32478 226.723 -1.47734 220.296 0.416571 213.889L59.4003 14.331C61.9123 5.83223 69.7177 4.02124e-05 78.58 4.02124e-05H117.797C124.478 4.02124e-05 129.28 6.42692 127.387 12.8345L68.4028 212.392Z" fill="#4f39f6"/>
<path d="M190.79 147.477C188.088 155.678 180.429 161.219 171.794 161.219H132.542C125.731 161.219 120.913 154.559 123.044 148.09L147.742 73.1234C150.443 64.9226 158.103 59.3815 166.737 59.3815H205.99C212.8 59.3815 217.619 66.0417 215.487 72.5105L190.79 147.477Z" fill="#4f39f6"/>
<path d="M277.491 212.392C274.979 220.891 267.173 226.723 258.311 226.723H219.094C212.413 226.723 207.611 220.296 209.504 213.889L268.488 14.331C271 5.83223 278.806 4.02124e-05 287.668 4.02124e-05H326.885C333.566 4.02124e-05 338.368 6.42692 336.474 12.8345L277.491 212.392Z" fill="#4f39f6"/>
</svg>
