<svg xmlns="http://www.w3.org/2000/svg" viewBox="0 0 600 350" width="600" height="350" font-family="system-ui, -apple-system, sans-serif">
<text x="300" y="20" text-anchor="middle" font-size="16" font-weight="600" fill="#333">Weekly Trend</text>
<g transform="translate(70,40)">
<line x1="0" y1="250" x2="500" y2="250" stroke="#e0e0e0" stroke-width="1"/>
<line x1="0" y1="187.5" x2="500" y2="187.5" stroke="#e0e0e0" stroke-width="1"/>
<line x1="0" y1="125" x2="500" y2="125" stroke="#e0e0e0" stroke-width="1"/>
<line x1="0" y1="62.5" x2="500" y2="62.5" stroke="#e0e0e0" stroke-width="1"/>
<line x1="0" y1="0" x2="500" y2="0" stroke="#e0e0e0" stroke-width="1"/>
<polyline points="0,156.25 83.33333333333333,109.375 166.66666666666666,162.5 250,62.5 333.3333333333333,78.125 416.6666666666667,25 500,46.875" fill="none" stroke="#4e79a7" stroke-width="2" stroke-linejoin="round" stroke-linecap="round"/>
<circle cx="0" cy="156.25" r="3" fill="#4e79a7"/>
<circle cx="83.33333333333333" cy="109.375" r="3" fill="#4e79a7"/>
<circle cx="166.66666666666666" cy="162.5" r="3" fill="#4e79a7"/>
<circle cx="250" cy="62.5" r="3" fill="#4e79a7"/>
<circle cx="333.3333333333333" cy="78.125" r="3" fill="#4e79a7"/>
<circle cx="416.6666666666667" cy="25" r="3" fill="#4e79a7"/>
<circle cx="500" cy="46.875" r="3" fill="#4e79a7"/>
<line x1="0" y1="250" x2="500" y2="250" stroke="#333" stroke-width="1"/>
<line x1="0" y1="250" x2="0" y2="255" stroke="#333"/>
<text x="0" y="268" text-anchor="middle" font-size="10" fill="#333">1</text>
<line x1="83.33333333333333" y1="250" x2="83.33333333333333" y2="255" stroke="#333"/>
<text x="83.33333333333333" y="268" text-anchor="middle" font-size="10" fill="#333">2</text>
<line x1="166.66666666666666" y1="250" x2="166.66666666666666" y2="255" stroke="#333"/>
<text x="166.66666666666666" y="268" text-anchor="middle" font-size="10" fill="#333">3</text>
<line x1="250" y1="250" x2="250" y2="255" stroke="#333"/>
<text x="250" y="268" text-anchor="middle" font-size="10" fill="#333">4</text>
<line x1="333.3333333333333" y1="250" x2="333.3333333333333" y2="255" stroke="#333"/>
<text x="333.3333333333333" y="268" text-anchor="middle" font-size="10" fill="#333">5</text>
<line x1="416.6666666666667" y1="250" x2="416.6666666666667" y2="255" stroke="#333"/>
<text x="416.6666666666667" y="268" text-anchor="middle" font-size="10" fill="#333">6</text>
<line x1="500" y1="250" x2="500" y2="255" stroke="#333"/>
<text x="500" y="268" text-anchor="middle" font-size="10" fill="#333">7</text>
<line x1="0" y1="0" x2="0" y2="250" stroke="#333" stroke-width="1"/>
<line x1="-5" y1="250" x2="0" y2="250" stroke="#333"/>
<text x="-10" y="254" text-anchor="end" font-size="10" fill="#333">0</text>
<line x1="-5" y1="187.5" x2="0" y2="187.5" stroke="#333"/>
<text x="-10" y="191.5" text-anchor="end" font-size="10" fill="#333">20</text>
<line x1="-5" y1="125" x2="0" y2="125" stroke="#333"/>
<text x="-10" y="129" text-anchor="end" font-size="10" fill="#333">40</text>
<line x1="-5" y1="62.5" x2="0" y2="62.5" stroke="#333"/>
<text x="-10" y="66.5" text-anchor="end" font-size="10" fill="#333">60</text>
<line x1="-5" y1="0" x2="0" y2="0" stroke="#333"/>
<text x="-10" y="4" text-anchor="end" font-size="10" fill="#333">80</text>
</g>
</svg>