<svg xmlns="http://www.w3.org/2000/svg" viewBox="0 0 600 350" width="600" height="350" font-family="system-ui, -apple-system, sans-serif">
<text x="300" y="20" text-anchor="middle" font-size="16" font-weight="600" fill="#333">Age Distribution</text>
<g transform="translate(70,40)">
<line x1="0" y1="250" x2="500" y2="250" stroke="#e0e0e0" stroke-width="1"/>
<line x1="0" y1="187.5" x2="500" y2="187.5" stroke="#e0e0e0" stroke-width="1"/>
<line x1="0" y1="125" x2="500" y2="125" stroke="#e0e0e0" stroke-width="1"/>
<line x1="0" y1="62.5" x2="500" y2="62.5" stroke="#e0e0e0" stroke-width="1"/>
<line x1="0" y1="0" x2="500" y2="0" stroke="#e0e0e0" stroke-width="1"/>
<rect x="220" y="125" width="25" height="125" fill="#4e79a7" stroke="white" stroke-width="1"/>
<rect x="245" y="125" width="25" height="125" fill="#4e79a7" stroke="white" stroke-width="1"/>
<rect x="270" y="0" width="25" height="250" fill="#4e79a7" stroke="white" stroke-width="1"/>
<rect x="295" y="125" width="25" height="125" fill="#4e79a7" stroke="white" stroke-width="1"/>
<rect x="320" y="62.5" width="25" height="187.5" fill="#4e79a7" stroke="white" stroke-width="1"/>
<rect x="345" y="125" width="25" height="125" fill="#4e79a7" stroke="white" stroke-width="1"/>
<rect x="370" y="125" width="25" height="125" fill="#4e79a7" stroke="white" stroke-width="1"/>
<rect x="395" y="62.5" width="25" height="187.5" fill="#4e79a7" stroke="white" stroke-width="1"/>
<line x1="0" y1="250" x2="500" y2="250" stroke="#333" stroke-width="1"/>
<line x1="0" y1="250" x2="0" y2="255" stroke="#333"/>
<text x="0" y="268" text-anchor="middle" font-size="10" fill="#333">0</text>
<line x1="100" y1="250" x2="100" y2="255" stroke="#333"/>
<text x="100" y="268" text-anchor="middle" font-size="10" fill="#333">10</text>
<line x1="200" y1="250" x2="200" y2="255" stroke="#333"/>
<text x="200" y="268" text-anchor="middle" font-size="10" fill="#333">20</text>
<line x1="300" y1="250" x2="300" y2="255" stroke="#333"/>
<text x="300" y="268" text-anchor="middle" font-size="10" fill="#333">30</text>
<line x1="400" y1="250" x2="400" y2="255" stroke="#333"/>
<text x="400" y="268" text-anchor="middle" font-size="10" fill="#333">40</text>
<line x1="500" y1="250" x2="500" y2="255" stroke="#333"/>
<text x="500" y="268" text-anchor="middle" font-size="10" fill="#333">50</text>
<line x1="0" y1="0" x2="0" y2="250" stroke="#333" stroke-width="1"/>
<line x1="-5" y1="250" x2="0" y2="250" stroke="#333"/>
<text x="-10" y="254" text-anchor="end" font-size="10" fill="#333">0</text>
<line x1="-5" y1="187.5" x2="0" y2="187.5" stroke="#333"/>
<text x="-10" y="191.5" text-anchor="end" font-size="10" fill="#333">1</text>
<line x1="-5" y1="125" x2="0" y2="125" stroke="#333"/>
<text x="-10" y="129" text-anchor="end" font-size="10" fill="#333">2</text>
<line x1="-5" y1="62.5" x2="0" y2="62.5" stroke="#333"/>
<text x="-10" y="66.5" text-anchor="end" font-size="10" fill="#333">3</text>
<line x1="-5" y1="0" x2="0" y2="0" stroke="#333"/>
<text x="-10" y="4" text-anchor="end" font-size="10" fill="#333">4</text>
<text x="-50" y="125" text-anchor="middle" font-size="12" fill="#333" transform="rotate(-90, -50, 125)">Frequency</text>
</g>
</svg>